<?xml version="1.0" standalone="no"?>
<!DOCTYPE svg PUBLIC "-//W3C//DTD SVG 20010904//EN"
 "http://www.w3.org/TR/2001/REC-SVG-20010904/DTD/svg10.dtd">
<svg version="1.0" xmlns="http://www.w3.org/2000/svg"
 width="900.000000pt" height="900.000000pt" viewBox="0 0 900.000000 900.000000"
 preserveAspectRatio="xMidYMid meet">
<metadata>
Created by potrace 1.11, written by Peter Selinger 2001-2013
</metadata>
<g transform="translate(0.000000,900.000000) scale(0.100000,-0.100000)"
fill="#000000" stroke="none">
<path d="M2452 6596 l-2093 -2048 50 -56 c66 -76 289 -297 294 -292 2 3 32 55
67 115 592 1030 1411 1894 2305 2432 763 459 1641 723 2416 727 l196 1 -257
265 c-142 146 -400 409 -572 585 l-314 319 -2092 -2048z"/>
<path d="M5550 7129 c-1129 -64 -2156 -479 -3060 -1239 -178 -149 -585 -558
-737 -740 -291 -350 -557 -739 -737 -1081 l-65 -125 546 -558 547 -558 22 123
c93 505 312 1035 628 1519 713 1090 1916 1877 3461 2266 105 26 192 49 195 51
2 2 -74 82 -170 178 l-175 175 -155 -1 c-85 -1 -220 -6 -300 -10z"/>
<path d="M6510 6454 c-756 -180 -1423 -458 -1990 -831 -909 -598 -1592 -1432
-1992 -2433 -86 -215 -198 -581 -198 -647 0 -10 72 -90 163 -181 l164 -163 23
88 c61 236 210 648 329 913 681 1512 1937 2454 3561 2670 102 14 241 23 407
27 l252 6 -280 286 c-216 220 -287 286 -308 288 -14 1 -73 -9 -131 -23z"/>
<path d="M6810 5533 c-968 -73 -1803 -436 -2459 -1068 -615 -592 -1066 -1426
-1336 -2468 l-34 -129 572 -584 572 -584 6 262 c32 1264 395 2381 1036 3183
105 131 320 354 452 469 490 425 1101 717 1806 861 179 37 178 38 -25 55 -106
9 -485 11 -590 3z"/>
<path d="M7794 5200 c-468 -106 -1029 -373 -1457 -694 -177 -133 -307 -245
-457 -395 -787 -788 -1253 -1870 -1389 -3226 -23 -221 -38 -515 -27 -515 3 0
945 918 2091 2041 1314 1285 2083 2045 2078 2052 -16 27 -738 757 -747 756 -6
0 -48 -9 -92 -19z"/>
</g>
</svg>
